<?xml version="1.0" encoding="UTF-8" standalone="no"?>
<!DOCTYPE svg PUBLIC "-//W3C//DTD SVG 1.1//EN"
 "http://www.w3.org/Graphics/SVG/1.1/DTD/svg11.dtd">
<!-- Generated by graphviz version 9.0.0 (20230911.1827)
 -->
<!-- Title: FlocqDependencies Pages: 1 -->
<svg width="1970pt" height="1336pt"
 viewBox="0.00 0.00 1970.00 1335.50" xmlns="http://www.w3.org/2000/svg" xmlns:xlink="http://www.w3.org/1999/xlink">
<g id="graph0" class="graph" transform="scale(1 1) rotate(0) translate(4 1331.5)">
<title>FlocqDependencies</title>
<polygon fill="white" stroke="none" points="-4,4 -4,-1331.5 1966,-1331.5 1966,4 -4,4"/>
<g id="clust1" class="cluster">
<title>cluster_Core</title>
<polygon fill="#e6f3ff" stroke="black" points="244,-361.5 244,-1319.5 1068,-1319.5 1068,-361.5 244,-361.5"/>
<text text-anchor="start" x="608.75" y="-1282.3" font-family="Times,serif" font-weight="bold" font-size="36.00">Core</text>
</g>
<g id="clust2" class="cluster">
<title>cluster_Calc</title>
<polygon fill="#e6ffe6" stroke="black" points="1227,-243.5 1227,-581.5 1649,-581.5 1649,-243.5 1227,-243.5"/>
<text text-anchor="start" x="1394.5" y="-544.3" font-family="Times,serif" font-weight="bold" font-size="36.00">Calc</text>
</g>
<g id="clust3" class="cluster">
<title>cluster_Prop</title>
<polygon fill="#ffffe6" stroke="black" points="856,-8 856,-353.5 1219,-353.5 1219,-8 856,-8"/>
<text text-anchor="start" x="989.88" y="-316.3" font-family="Times,serif" font-weight="bold" font-size="36.00">Prop</text>
</g>
<g id="clust4" class="cluster">
<title>cluster_IEEE754</title>
<polygon fill="#ffe6e6" stroke="black" points="1130,-1209.5 1130,-1319.5 1595,-1319.5 1595,-1209.5 1130,-1209.5"/>
<text text-anchor="start" x="1275.5" y="-1282.3" font-family="Times,serif" font-weight="bold" font-size="36.00">IEEE754</text>
</g>
<g id="clust5" class="cluster">
<title>cluster_Pff</title>
<polygon fill="#f0f0f0" stroke="black" points="8,-243.5 8,-471.5 236,-471.5 236,-243.5 8,-243.5"/>
<text text-anchor="start" x="93.88" y="-434.3" font-family="Times,serif" font-weight="bold" font-size="36.00">Pff</text>
</g>
<!-- src_Core_Core_v -->
<g id="node1" class="node">
<title>src_Core_Core_v</title>
<polygon fill="none" stroke="black" points="833,-412 763,-412 763,-369.5 833,-369.5 833,-412"/>
<text text-anchor="middle" x="798" y="-394.7" font-family="Times,serif" font-size="14.00">Core</text>
<text text-anchor="middle" x="798" y="-377.45" font-family="Times,serif" font-size="14.00">(0 defs)</text>
</g>
<!-- src_Calc_Plus_v -->
<g id="node18" class="node">
<title>src_Calc_Plus_v</title>
<polygon fill="none" stroke="black" points="1373.5,-294 1294.5,-294 1294.5,-251.5 1373.5,-251.5 1373.5,-294"/>
<text text-anchor="middle" x="1334" y="-276.7" font-family="Times,serif" font-size="14.00">Plus</text>
<text text-anchor="middle" x="1334" y="-259.45" font-family="Times,serif" font-size="14.00">(19 defs)</text>
</g>
<!-- src_Core_Core_v&#45;&gt;src_Calc_Plus_v -->
<g id="edge104" class="edge">
<title>src_Core_Core_v&#45;&gt;src_Calc_Plus_v</title>
<path fill="none" stroke="black" d="M833.4,-389.14C922.1,-387.23 1151.8,-379.82 1223,-353.5 1253.77,-342.13 1283.68,-319.78 1304.68,-301.63"/>
<polygon fill="black" stroke="black" points="1306.82,-304.41 1311.98,-295.15 1302.18,-299.17 1306.82,-304.41"/>
</g>
<!-- src_Calc_Round_v -->
<g id="node19" class="node">
<title>src_Calc_Round_v</title>
<polygon fill="none" stroke="black" points="1431.5,-412 1352.5,-412 1352.5,-369.5 1431.5,-369.5 1431.5,-412"/>
<text text-anchor="middle" x="1392" y="-394.7" font-family="Times,serif" font-size="14.00">Round</text>
<text text-anchor="middle" x="1392" y="-377.45" font-family="Times,serif" font-size="14.00">(37 defs)</text>
</g>
<!-- src_Core_Core_v&#45;&gt;src_Calc_Round_v -->
<g id="edge98" class="edge">
<title>src_Core_Core_v&#45;&gt;src_Calc_Round_v</title>
<path fill="none" stroke="black" d="M833.38,-400.07C906.95,-418.92 1082.04,-460.99 1232,-475.5 1254.78,-477.7 1312.61,-480.25 1335,-475.5 1339.28,-474.59 1340.73,-474.41 1344,-471.5 1359,-458.17 1370.67,-439 1378.75,-422.68"/>
<polygon fill="black" stroke="black" points="1381.82,-424.37 1382.89,-413.83 1375.48,-421.4 1381.82,-424.37"/>
</g>
<!-- src_Prop_Div_sqrt_error_v -->
<g id="node21" class="node">
<title>src_Prop_Div_sqrt_error_v</title>
<polygon fill="none" stroke="black" points="1036.75,-58.5 917.25,-58.5 917.25,-16 1036.75,-16 1036.75,-58.5"/>
<text text-anchor="middle" x="977" y="-41.2" font-family="Times,serif" font-size="14.00">Div_sqrt_error</text>
<text text-anchor="middle" x="977" y="-23.95" font-family="Times,serif" font-size="14.00">(39 defs)</text>
</g>
<!-- src_Core_Core_v&#45;&gt;src_Prop_Div_sqrt_error_v -->
<g id="edge118" class="edge">
<title>src_Core_Core_v&#45;&gt;src_Prop_Div_sqrt_error_v</title>
<path fill="none" stroke="black" d="M794.22,-369.18C789.65,-340.68 783.55,-287.68 792,-243.5 805.51,-172.88 804.48,-145.66 855,-94.5 869.24,-80.07 887.88,-68.96 906.29,-60.57"/>
<polygon fill="black" stroke="black" points="907.56,-63.83 915.37,-56.66 904.8,-57.4 907.56,-63.83"/>
</g>
<!-- src_Prop_Double_rounding_v -->
<g id="node22" class="node">
<title>src_Prop_Double_rounding_v</title>
<polygon fill="none" stroke="black" points="1098.75,-294 961.25,-294 961.25,-251.5 1098.75,-251.5 1098.75,-294"/>
<text text-anchor="middle" x="1030" y="-276.7" font-family="Times,serif" font-size="14.00">Double_rounding</text>
<text text-anchor="middle" x="1030" y="-259.45" font-family="Times,serif" font-size="14.00">(48 defs)</text>
</g>
<!-- src_Core_Core_v&#45;&gt;src_Prop_Double_rounding_v -->
<g id="edge124" class="edge">
<title>src_Core_Core_v&#45;&gt;src_Prop_Double_rounding_v</title>
<path fill="none" stroke="black" d="M833.31,-387.22C866.15,-383.59 915.51,-374.78 953,-353.5 975.09,-340.96 994.87,-320.15 1008.85,-302.93"/>
<polygon fill="black" stroke="black" points="1011.26,-305.54 1014.68,-295.51 1005.75,-301.21 1011.26,-305.54"/>
</g>
<!-- src_Prop_Mult_error_v -->
<g id="node23" class="node">
<title>src_Prop_Mult_error_v</title>
<polygon fill="none" stroke="black" points="957.62,-137 864.38,-137 864.38,-94.5 957.62,-94.5 957.62,-137"/>
<text text-anchor="middle" x="911" y="-119.7" font-family="Times,serif" font-size="14.00">Mult_error</text>
<text text-anchor="middle" x="911" y="-102.45" font-family="Times,serif" font-size="14.00">(12 defs)</text>
</g>
<!-- src_Core_Core_v&#45;&gt;src_Prop_Mult_error_v -->
<g id="edge115" class="edge">
<title>src_Core_Core_v&#45;&gt;src_Prop_Mult_error_v</title>
<path fill="none" stroke="black" d="M797.05,-369.27C796.35,-340.41 797.43,-286.5 812,-243.5 825.15,-204.7 855.74,-168.75 879.46,-145.12"/>
<polygon fill="black" stroke="black" points="881.7,-147.82 886.44,-138.34 876.83,-142.8 881.7,-147.82"/>
</g>
<!-- src_Prop_Plus_error_v -->
<g id="node24" class="node">
<title>src_Prop_Plus_error_v</title>
<polygon fill="none" stroke="black" points="955.12,-215.5 864.88,-215.5 864.88,-173 955.12,-173 955.12,-215.5"/>
<text text-anchor="middle" x="910" y="-198.2" font-family="Times,serif" font-size="14.00">Plus_error</text>
<text text-anchor="middle" x="910" y="-180.95" font-family="Times,serif" font-size="14.00">(29 defs)</text>
</g>
<!-- src_Core_Core_v&#45;&gt;src_Prop_Plus_error_v -->
<g id="edge112" class="edge">
<title>src_Core_Core_v&#45;&gt;src_Prop_Plus_error_v</title>
<path fill="none" stroke="black" d="M805.99,-369.26C821.44,-329.66 854.09,-246.23 856,-243.5 861.01,-236.32 867.29,-229.48 873.77,-223.33"/>
<polygon fill="black" stroke="black" points="875.79,-226.22 880.9,-216.93 871.12,-221.01 875.79,-226.22"/>
</g>
<!-- src_Prop_Relative_v -->
<g id="node25" class="node">
<title>src_Prop_Relative_v</title>
<polygon fill="none" stroke="black" points="943.5,-294 864.5,-294 864.5,-251.5 943.5,-251.5 943.5,-294"/>
<text text-anchor="middle" x="904" y="-276.7" font-family="Times,serif" font-size="14.00">Relative</text>
<text text-anchor="middle" x="904" y="-259.45" font-family="Times,serif" font-size="14.00">(58 defs)</text>
</g>
<!-- src_Core_Core_v&#45;&gt;src_Prop_Relative_v -->
<g id="edge105" class="edge">
<title>src_Core_Core_v&#45;&gt;src_Prop_Relative_v</title>
<path fill="none" stroke="black" d="M831.62,-369.03C838.07,-364.33 844.51,-359.06 850,-353.5 864.45,-338.85 877.48,-319.86 887.13,-304.09"/>
<polygon fill="black" stroke="black" points="890.09,-305.95 892.18,-295.56 884.07,-302.38 890.09,-305.95"/>
</g>
<!-- src_Prop_Round_odd_v -->
<g id="node26" class="node">
<title>src_Prop_Round_odd_v</title>
<polygon fill="none" stroke="black" points="1211.38,-294 1116.62,-294 1116.62,-251.5 1211.38,-251.5 1211.38,-294"/>
<text text-anchor="middle" x="1164" y="-276.7" font-family="Times,serif" font-size="14.00">Round_odd</text>
<text text-anchor="middle" x="1164" y="-259.45" font-family="Times,serif" font-size="14.00">(26 defs)</text>
</g>
<!-- src_Core_Core_v&#45;&gt;src_Prop_Round_odd_v -->
<g id="edge123" class="edge">
<title>src_Core_Core_v&#45;&gt;src_Prop_Round_odd_v</title>
<path fill="none" stroke="black" d="M833.31,-389.2C904.5,-387.51 1062.33,-380.72 1108,-353.5 1127.07,-342.13 1141.31,-321.46 1150.65,-304.01"/>
<polygon fill="black" stroke="black" points="1153.54,-306.06 1154.91,-295.56 1147.29,-302.91 1153.54,-306.06"/>
</g>
<!-- src_Pff_Pff2Flocq_v -->
<g id="node34" class="node">
<title>src_Pff_Pff2Flocq_v</title>
<polygon fill="none" stroke="black" points="227.75,-294 144.25,-294 144.25,-251.5 227.75,-251.5 227.75,-294"/>
<text text-anchor="middle" x="186" y="-276.7" font-family="Times,serif" font-size="14.00">Pff2Flocq</text>
<text text-anchor="middle" x="186" y="-259.45" font-family="Times,serif" font-size="14.00">(29 defs)</text>
</g>
<!-- src_Core_Core_v&#45;&gt;src_Pff_Pff2Flocq_v -->
<g id="edge129" class="edge">
<title>src_Core_Core_v&#45;&gt;src_Pff_Pff2Flocq_v</title>
<path fill="none" stroke="black" d="M762.9,-383.1C660.54,-363.7 361.9,-307.09 239.39,-283.87"/>
<polygon fill="black" stroke="black" points="240.06,-280.43 229.58,-282.01 238.76,-287.31 240.06,-280.43"/>
</g>
<!-- src_Pff_Pff2FlocqAux_v -->
<g id="node35" class="node">
<title>src_Pff_Pff2FlocqAux_v</title>
<polygon fill="none" stroke="black" points="126.25,-294 15.75,-294 15.75,-251.5 126.25,-251.5 126.25,-294"/>
<text text-anchor="middle" x="71" y="-276.7" font-family="Times,serif" font-size="14.00">Pff2FlocqAux</text>
<text text-anchor="middle" x="71" y="-259.45" font-family="Times,serif" font-size="14.00">(214 defs)</text>
</g>
<!-- src_Core_Core_v&#45;&gt;src_Pff_Pff2FlocqAux_v -->
<g id="edge127" class="edge">
<title>src_Core_Core_v&#45;&gt;src_Pff_Pff2FlocqAux_v</title>
<path fill="none" stroke="black" d="M762.77,-388.02C626.62,-381.29 142.05,-357.12 135,-353.5 113.95,-342.69 97.47,-321.51 86.5,-303.69"/>
<polygon fill="black" stroke="black" points="89.81,-302.41 81.75,-295.54 83.76,-305.94 89.81,-302.41"/>
</g>
<!-- src_Core_Defs_v -->
<g id="node2" class="node">
<title>src_Core_Defs_v</title>
<polygon fill="none" stroke="black" points="901.5,-1103 822.5,-1103 822.5,-1060.5 901.5,-1060.5 901.5,-1103"/>
<text text-anchor="middle" x="862" y="-1085.7" font-family="Times,serif" font-size="14.00">Defs</text>
<text text-anchor="middle" x="862" y="-1068.45" font-family="Times,serif" font-size="14.00">(12 defs)</text>
</g>
<!-- src_Core_Defs_v&#45;&gt;src_Core_Core_v -->
<g id="edge55" class="edge">
<title>src_Core_Defs_v&#45;&gt;src_Core_Core_v</title>
<path fill="none" stroke="black" d="M875.13,-1060.22C881.67,-1049.69 889.55,-1036.58 896,-1024.5 906.25,-1005.32 979,-869 979,-847.25 979,-847.25 979,-847.25 979,-766.75 979,-702.89 1021.36,-533.33 987,-479.5 955.85,-430.69 889.76,-408.61 844.61,-398.92"/>
<polygon fill="black" stroke="black" points="845.3,-395.49 834.81,-396.96 843.93,-402.35 845.3,-395.49"/>
</g>
<!-- src_Core_FIX_v -->
<g id="node4" class="node">
<title>src_Core_FIX_v</title>
<polygon fill="none" stroke="black" points="648,-710.5 578,-710.5 578,-668 648,-668 648,-710.5"/>
<text text-anchor="middle" x="613" y="-693.2" font-family="Times,serif" font-size="14.00">FIX</text>
<text text-anchor="middle" x="613" y="-675.95" font-family="Times,serif" font-size="14.00">(7 defs)</text>
</g>
<!-- src_Core_Defs_v&#45;&gt;src_Core_FIX_v -->
<g id="edge29" class="edge">
<title>src_Core_Defs_v&#45;&gt;src_Core_FIX_v</title>
<path fill="none" stroke="black" d="M844.64,-1060.17C837.05,-1050.05 828.8,-1037.3 824,-1024.5 804.97,-973.76 831.12,-952.97 809,-903.5 773.41,-823.88 696.08,-754.26 649.9,-717.64"/>
<polygon fill="black" stroke="black" points="652.33,-715.1 642.3,-711.7 648.02,-720.61 652.33,-715.1"/>
</g>
<!-- src_Core_FLT_v -->
<g id="node5" class="node">
<title>src_Core_FLT_v</title>
<polygon fill="none" stroke="black" points="707.5,-522 628.5,-522 628.5,-479.5 707.5,-479.5 707.5,-522"/>
<text text-anchor="middle" x="668" y="-504.7" font-family="Times,serif" font-size="14.00">FLT</text>
<text text-anchor="middle" x="668" y="-487.45" font-family="Times,serif" font-size="14.00">(25 defs)</text>
</g>
<!-- src_Core_Defs_v&#45;&gt;src_Core_FLT_v -->
<g id="edge45" class="edge">
<title>src_Core_Defs_v&#45;&gt;src_Core_FLT_v</title>
<path fill="none" stroke="black" d="M860.69,-1060.18C859.17,-1040.1 856.2,-1008.75 851,-982 830.54,-876.82 788.77,-700.08 733,-589.5 722.41,-568.5 706.82,-547.26 693.57,-530.93"/>
<polygon fill="black" stroke="black" points="696.54,-529.02 687.46,-523.56 691.15,-533.49 696.54,-529.02"/>
</g>
<!-- src_Core_FLX_v -->
<g id="node6" class="node">
<title>src_Core_FLX_v</title>
<polygon fill="none" stroke="black" points="707.5,-632 628.5,-632 628.5,-589.5 707.5,-589.5 707.5,-632"/>
<text text-anchor="middle" x="668" y="-614.7" font-family="Times,serif" font-size="14.00">FLX</text>
<text text-anchor="middle" x="668" y="-597.45" font-family="Times,serif" font-size="14.00">(23 defs)</text>
</g>
<!-- src_Core_Defs_v&#45;&gt;src_Core_FLX_v -->
<g id="edge36" class="edge">
<title>src_Core_Defs_v&#45;&gt;src_Core_FLX_v</title>
<path fill="none" stroke="black" d="M858.33,-1060.14C852.05,-1026.66 837.95,-958.66 818,-903.5 784.71,-811.47 756.98,-797.42 712,-710.5 705.6,-698.14 691.85,-666.97 681.42,-642.92"/>
<polygon fill="black" stroke="black" points="684.68,-641.64 677.49,-633.86 678.25,-644.42 684.68,-641.64"/>
</g>
<!-- src_Core_FTZ_v -->
<g id="node7" class="node">
<title>src_Core_FTZ_v</title>
<polygon fill="none" stroke="black" points="977.5,-522 898.5,-522 898.5,-479.5 977.5,-479.5 977.5,-522"/>
<text text-anchor="middle" x="938" y="-504.7" font-family="Times,serif" font-size="14.00">FTZ</text>
<text text-anchor="middle" x="938" y="-487.45" font-family="Times,serif" font-size="14.00">(11 defs)</text>
</g>
<!-- src_Core_Defs_v&#45;&gt;src_Core_FTZ_v -->
<g id="edge67" class="edge">
<title>src_Core_Defs_v&#45;&gt;src_Core_FTZ_v</title>
<path fill="none" stroke="black" d="M870.1,-1060.34C893.42,-1000.92 959,-828.45 959,-768.75 959,-768.75 959,-768.75 959,-688.25 959,-633.56 949.97,-570.42 943.76,-533.42"/>
<polygon fill="black" stroke="black" points="947.26,-533.11 942.11,-523.85 940.36,-534.3 947.26,-533.11"/>
</g>
<!-- src_Core_Float_prop_v -->
<g id="node8" class="node">
<title>src_Core_Float_prop_v</title>
<polygon fill="none" stroke="black" points="1020.25,-1024.5 927.75,-1024.5 927.75,-982 1020.25,-982 1020.25,-1024.5"/>
<text text-anchor="middle" x="974" y="-1007.2" font-family="Times,serif" font-size="14.00">Float_prop</text>
<text text-anchor="middle" x="974" y="-989.95" font-family="Times,serif" font-size="14.00">(36 defs)</text>
</g>
<!-- src_Core_Defs_v&#45;&gt;src_Core_Float_prop_v -->
<g id="edge5" class="edge">
<title>src_Core_Defs_v&#45;&gt;src_Core_Float_prop_v</title>
<path fill="none" stroke="black" d="M892.31,-1060.05C905.26,-1051.2 920.55,-1040.76 934.37,-1031.32"/>
<polygon fill="black" stroke="black" points="936.13,-1034.35 942.42,-1025.82 932.19,-1028.57 936.13,-1034.35"/>
</g>
<!-- src_Core_Generic_fmt_v -->
<g id="node9" class="node">
<title>src_Core_Generic_fmt_v</title>
<polygon fill="none" stroke="black" points="799.5,-946 696.5,-946 696.5,-903.5 799.5,-903.5 799.5,-946"/>
<text text-anchor="middle" x="748" y="-928.7" font-family="Times,serif" font-size="14.00">Generic_fmt</text>
<text text-anchor="middle" x="748" y="-911.45" font-family="Times,serif" font-size="14.00">(124 defs)</text>
</g>
<!-- src_Core_Defs_v&#45;&gt;src_Core_Generic_fmt_v -->
<g id="edge11" class="edge">
<title>src_Core_Defs_v&#45;&gt;src_Core_Generic_fmt_v</title>
<path fill="none" stroke="black" d="M837.87,-1060.23C826.8,-1050.13 813.95,-1037.37 804,-1024.5 787.65,-1003.36 772.9,-976.9 762.65,-956.69"/>
<polygon fill="black" stroke="black" points="765.83,-955.23 758.25,-947.83 759.56,-958.34 765.83,-955.23"/>
</g>
<!-- src_Core_Round_NE_v -->
<g id="node11" class="node">
<title>src_Core_Round_NE_v</title>
<polygon fill="none" stroke="black" points="587.5,-789 496.5,-789 496.5,-746.5 587.5,-746.5 587.5,-789"/>
<text text-anchor="middle" x="542" y="-771.7" font-family="Times,serif" font-size="14.00">Round_NE</text>
<text text-anchor="middle" x="542" y="-754.45" font-family="Times,serif" font-size="14.00">(99 defs)</text>
</g>
<!-- src_Core_Defs_v&#45;&gt;src_Core_Round_NE_v -->
<g id="edge22" class="edge">
<title>src_Core_Defs_v&#45;&gt;src_Core_Round_NE_v</title>
<path fill="none" stroke="black" d="M825.46,-1060.1C808.67,-1050.07 788.8,-1037.41 772,-1024.5 731.48,-993.37 715.38,-989.14 688,-946 657.72,-898.29 685.37,-868.24 649,-825 635.61,-809.08 616.56,-797.06 598.22,-788.3"/>
<polygon fill="black" stroke="black" points="599.8,-785.17 589.24,-784.26 596.93,-791.56 599.8,-785.17"/>
</g>
<!-- src_Core_Round_pred_v -->
<g id="node12" class="node">
<title>src_Core_Round_pred_v</title>
<polygon fill="none" stroke="black" points="577.75,-1024.5 476.25,-1024.5 476.25,-982 577.75,-982 577.75,-1024.5"/>
<text text-anchor="middle" x="527" y="-1007.2" font-family="Times,serif" font-size="14.00">Round_pred</text>
<text text-anchor="middle" x="527" y="-989.95" font-family="Times,serif" font-size="14.00">(78 defs)</text>
</g>
<!-- src_Core_Defs_v&#45;&gt;src_Core_Round_pred_v -->
<g id="edge9" class="edge">
<title>src_Core_Defs_v&#45;&gt;src_Core_Round_pred_v</title>
<path fill="none" stroke="black" d="M822.26,-1071.67C764.63,-1058.51 657.33,-1034.01 589.18,-1018.45"/>
<polygon fill="black" stroke="black" points="590.18,-1015.09 579.65,-1016.27 588.62,-1021.91 590.18,-1015.09"/>
</g>
<!-- src_Core_Ulp_v -->
<g id="node13" class="node">
<title>src_Core_Ulp_v</title>
<polygon fill="none" stroke="black" points="640,-867.5 552,-867.5 552,-825 640,-825 640,-867.5"/>
<text text-anchor="middle" x="596" y="-850.2" font-family="Times,serif" font-size="14.00">Ulp</text>
<text text-anchor="middle" x="596" y="-832.95" font-family="Times,serif" font-size="14.00">(116 defs)</text>
</g>
<!-- src_Core_Defs_v&#45;&gt;src_Core_Ulp_v -->
<g id="edge16" class="edge">
<title>src_Core_Defs_v&#45;&gt;src_Core_Ulp_v</title>
<path fill="none" stroke="black" d="M822.36,-1078.7C780.28,-1074.53 714.16,-1061.99 672,-1024.5 628.71,-986.01 609.22,-918.59 601.13,-878.92"/>
<polygon fill="black" stroke="black" points="604.61,-878.46 599.3,-869.29 597.73,-879.76 604.61,-878.46"/>
</g>
<!-- src_Calc_Bracket_v -->
<g id="node15" class="node">
<title>src_Calc_Bracket_v</title>
<polygon fill="none" stroke="black" points="1325.5,-522 1246.5,-522 1246.5,-479.5 1325.5,-479.5 1325.5,-522"/>
<text text-anchor="middle" x="1286" y="-504.7" font-family="Times,serif" font-size="14.00">Bracket</text>
<text text-anchor="middle" x="1286" y="-487.45" font-family="Times,serif" font-size="14.00">(37 defs)</text>
</g>
<!-- src_Core_Defs_v&#45;&gt;src_Calc_Bracket_v -->
<g id="edge75" class="edge">
<title>src_Core_Defs_v&#45;&gt;src_Calc_Bracket_v</title>
<path fill="none" stroke="black" d="M901.9,-1073.8C1000.25,-1055.89 1250.46,-1005.41 1308,-946 1418.83,-831.57 1336.75,-613.07 1300.7,-532.54"/>
<polygon fill="black" stroke="black" points="1303.91,-531.14 1296.57,-523.5 1297.54,-534.05 1303.91,-531.14"/>
</g>
<!-- src_Calc_Div_v -->
<g id="node16" class="node">
<title>src_Calc_Div_v</title>
<polygon fill="none" stroke="black" points="1334.5,-412 1255.5,-412 1255.5,-369.5 1334.5,-369.5 1334.5,-412"/>
<text text-anchor="middle" x="1295" y="-394.7" font-family="Times,serif" font-size="14.00">Div</text>
<text text-anchor="middle" x="1295" y="-377.45" font-family="Times,serif" font-size="14.00">(22 defs)</text>
</g>
<!-- src_Core_Defs_v&#45;&gt;src_Calc_Div_v -->
<g id="edge84" class="edge">
<title>src_Core_Defs_v&#45;&gt;src_Calc_Div_v</title>
<path fill="none" stroke="black" d="M901.93,-1073.15C922.79,-1069.25 948.75,-1064.48 972,-1060.5 1072.68,-1043.25 1102.66,-1058.45 1199,-1024.5 1340.55,-974.62 1397.4,-932.61 1441,-789 1458.44,-731.55 1421.24,-629.33 1406,-589.5 1393.08,-555.74 1341.59,-468.68 1313.51,-422.14"/>
<polygon fill="black" stroke="black" points="1316.52,-420.36 1308.35,-413.62 1310.53,-423.98 1316.52,-420.36"/>
</g>
<!-- src_Calc_Operations_v -->
<g id="node17" class="node">
<title>src_Calc_Operations_v</title>
<polygon fill="none" stroke="black" points="1641.38,-412 1546.62,-412 1546.62,-369.5 1641.38,-369.5 1641.38,-412"/>
<text text-anchor="middle" x="1594" y="-394.7" font-family="Times,serif" font-size="14.00">Operations</text>
<text text-anchor="middle" x="1594" y="-377.45" font-family="Times,serif" font-size="14.00">(16 defs)</text>
</g>
<!-- src_Core_Defs_v&#45;&gt;src_Calc_Operations_v -->
<g id="edge79" class="edge">
<title>src_Core_Defs_v&#45;&gt;src_Calc_Operations_v</title>
<path fill="none" stroke="black" d="M901.82,-1072.4C922.64,-1068.3 948.61,-1063.58 972,-1060.5 1171.36,-1034.26 1233.25,-1091.04 1423,-1024.5 1591.87,-965.28 1734,-947.71 1734,-768.75 1734,-768.75 1734,-768.75 1734,-609.75 1734,-550.89 1740.9,-529.6 1710,-479.5 1694.21,-453.9 1668.01,-433.13 1644.5,-418.24"/>
<polygon fill="black" stroke="black" points="1646.62,-415.43 1636.26,-413.21 1642.97,-421.4 1646.62,-415.43"/>
</g>
<!-- src_Calc_Sqrt_v -->
<g id="node20" class="node">
<title>src_Calc_Sqrt_v</title>
<polygon fill="none" stroke="black" points="1528.5,-412 1449.5,-412 1449.5,-369.5 1528.5,-369.5 1528.5,-412"/>
<text text-anchor="middle" x="1489" y="-394.7" font-family="Times,serif" font-size="14.00">Sqrt</text>
<text text-anchor="middle" x="1489" y="-377.45" font-family="Times,serif" font-size="14.00">(17 defs)</text>
</g>
<!-- src_Core_Defs_v&#45;&gt;src_Calc_Sqrt_v -->
<g id="edge91" class="edge">
<title>src_Core_Defs_v&#45;&gt;src_Calc_Sqrt_v</title>
<path fill="none" stroke="black" d="M901.88,-1072.83C922.72,-1068.83 948.68,-1064.09 972,-1060.5 1242.18,-1018.9 1412.44,-1100.13 1556,-867.5 1646.34,-721.1 1547.63,-501.81 1505.85,-422.09"/>
<polygon fill="black" stroke="black" points="1509.09,-420.73 1501.3,-413.55 1502.91,-424.03 1509.09,-420.73"/>
</g>
<!-- src_Prop_Sterbenz_v -->
<g id="node27" class="node">
<title>src_Prop_Sterbenz_v</title>
<polygon fill="none" stroke="black" points="1211.25,-137 1130.75,-137 1130.75,-94.5 1211.25,-94.5 1211.25,-137"/>
<text text-anchor="middle" x="1171" y="-119.7" font-family="Times,serif" font-size="14.00">Sterbenz</text>
<text text-anchor="middle" x="1171" y="-102.45" font-family="Times,serif" font-size="14.00">(30 defs)</text>
</g>
<!-- src_Core_Defs_v&#45;&gt;src_Prop_Sterbenz_v -->
<g id="edge107" class="edge">
<title>src_Core_Defs_v&#45;&gt;src_Prop_Sterbenz_v</title>
<path fill="none" stroke="black" d="M901.8,-1072.29C922.62,-1068.15 948.59,-1063.44 972,-1060.5 1205.37,-1031.16 1271.81,-1081.52 1500,-1024.5 1582.7,-1003.83 1601.3,-988.84 1675,-946 1739.27,-908.64 1810,-921.59 1810,-847.25 1810,-847.25 1810,-847.25 1810,-271.75 1810,-139.79 1657.94,-205.29 1530,-173 1422.37,-145.83 1293.1,-129.44 1222.78,-121.84"/>
<polygon fill="black" stroke="black" points="1223.42,-118.39 1213.1,-120.81 1222.68,-125.35 1223.42,-118.39"/>
</g>
<!-- src_Core_Digits_v -->
<g id="node3" class="node">
<title>src_Core_Digits_v</title>
<polygon fill="none" stroke="black" points="1059.5,-1103 980.5,-1103 980.5,-1060.5 1059.5,-1060.5 1059.5,-1103"/>
<text text-anchor="middle" x="1020" y="-1085.7" font-family="Times,serif" font-size="14.00">Digits</text>
<text text-anchor="middle" x="1020" y="-1068.45" font-family="Times,serif" font-size="14.00">(62 defs)</text>
</g>
<!-- src_Core_Digits_v&#45;&gt;src_Core_Core_v -->
<g id="edge56" class="edge">
<title>src_Core_Digits_v&#45;&gt;src_Core_Core_v</title>
<path fill="none" stroke="black" d="M1030.29,-1060.11C1035.12,-1049.66 1040.54,-1036.65 1044,-1024.5 1056.14,-981.8 1059,-970.14 1059,-925.75 1059,-925.75 1059,-925.75 1059,-688.25 1059,-593.61 1077.54,-552.24 1017,-479.5 973.61,-427.37 894.71,-405.96 844.41,-397.35"/>
<polygon fill="black" stroke="black" points="845.12,-393.92 834.7,-395.8 844.02,-400.83 845.12,-393.92"/>
</g>
<!-- src_Core_Digits_v&#45;&gt;src_Core_Float_prop_v -->
<g id="edge6" class="edge">
<title>src_Core_Digits_v&#45;&gt;src_Core_Float_prop_v</title>
<path fill="none" stroke="black" d="M1007.67,-1060.25C1002.93,-1052.36 997.41,-1043.18 992.22,-1034.56"/>
<polygon fill="black" stroke="black" points="995.29,-1032.87 987.14,-1026.1 989.29,-1036.48 995.29,-1032.87"/>
</g>
<!-- src_Core_Digits_v&#45;&gt;src_Calc_Div_v -->
<g id="edge85" class="edge">
<title>src_Core_Digits_v&#45;&gt;src_Calc_Div_v</title>
<path fill="none" stroke="black" d="M980.04,-1072.31C959.49,-1068.23 933.99,-1063.56 911,-1060.5 714.75,-1034.38 652.88,-1092.65 467,-1024.5 319.79,-970.52 224,-925.54 224,-768.75 224,-768.75 224,-768.75 224,-688.25 224,-597.56 530.11,-601.53 620,-589.5 640.21,-586.79 968.39,-589.84 987,-581.5 1043.53,-556.16 1031.08,-514.78 1082,-479.5 1132.46,-444.54 1198.98,-419.96 1244.17,-405.88"/>
<polygon fill="black" stroke="black" points="1245.18,-409.23 1253.72,-402.96 1243.14,-402.53 1245.18,-409.23"/>
</g>
<!-- src_Core_Digits_v&#45;&gt;src_Calc_Round_v -->
<g id="edge99" class="edge">
<title>src_Core_Digits_v&#45;&gt;src_Calc_Round_v</title>
<path fill="none" stroke="black" d="M1059.97,-1080.8C1154.21,-1080.1 1386.72,-1073.34 1444,-1024.5 1562,-923.9 1544,-845.31 1544,-690.25 1544,-690.25 1544,-690.25 1544,-609.75 1544,-533.13 1483.99,-534.93 1441,-471.5 1430.19,-455.54 1418.87,-437.25 1409.84,-422.21"/>
<polygon fill="black" stroke="black" points="1412.89,-420.49 1404.77,-413.69 1406.88,-424.07 1412.89,-420.49"/>
</g>
<!-- src_Core_Digits_v&#45;&gt;src_Calc_Sqrt_v -->
<g id="edge92" class="edge">
<title>src_Core_Digits_v&#45;&gt;src_Calc_Sqrt_v</title>
<path fill="none" stroke="black" d="M1059.62,-1081.46C1169.92,-1082.7 1477.68,-1080.89 1558,-1024.5 1629.2,-974.51 1658,-794.22 1658,-690.25 1658,-690.25 1658,-690.25 1658,-609.75 1658,-550.89 1677.63,-519.01 1634,-479.5 1618.13,-465.13 1556.23,-482.72 1538,-471.5 1520,-460.43 1507.65,-440.03 1499.85,-422.64"/>
<polygon fill="black" stroke="black" points="1503.21,-421.61 1496.15,-413.71 1496.74,-424.28 1503.21,-421.61"/>
</g>
<!-- src_Core_FIX_v&#45;&gt;src_Core_Core_v -->
<g id="edge57" class="edge">
<title>src_Core_FIX_v&#45;&gt;src_Core_Core_v</title>
<path fill="none" stroke="black" d="M648.04,-674.58C669.62,-664.95 696.91,-650.49 717,-632 777.12,-576.67 792.64,-475.27 796.63,-423.7"/>
<polygon fill="black" stroke="black" points="800.12,-424.02 797.29,-413.81 793.13,-423.56 800.12,-424.02"/>
</g>
<!-- src_Core_FIX_v&#45;&gt;src_Core_FLT_v -->
<g id="edge46" class="edge">
<title>src_Core_FIX_v&#45;&gt;src_Core_FLT_v</title>
<path fill="none" stroke="black" d="M611.94,-667.75C611.46,-647.46 612.3,-615.72 620,-589.5 626,-569.08 637.25,-548.1 647.36,-531.78"/>
<polygon fill="black" stroke="black" points="650.19,-533.84 652.63,-523.53 644.29,-530.07 650.19,-533.84"/>
</g>
<!-- src_Core_FIX_v&#45;&gt;src_Core_FLX_v -->
<g id="edge37" class="edge">
<title>src_Core_FIX_v&#45;&gt;src_Core_FLX_v</title>
<path fill="none" stroke="black" d="M627.74,-667.75C633.53,-659.69 640.3,-650.28 646.61,-641.5"/>
<polygon fill="black" stroke="black" points="649.34,-643.7 652.34,-633.54 643.66,-639.61 649.34,-643.7"/>
</g>
<!-- src_Core_FLT_v&#45;&gt;src_Core_Core_v -->
<g id="edge58" class="edge">
<title>src_Core_FLT_v&#45;&gt;src_Core_Core_v</title>
<path fill="none" stroke="black" d="M692.76,-479.18C713.09,-462.29 742.08,-438.21 764.49,-419.59"/>
<polygon fill="black" stroke="black" points="766.71,-422.29 772.17,-413.21 762.24,-416.91 766.71,-422.29"/>
</g>
<!-- src_Core_FLX_v&#45;&gt;src_Core_Core_v -->
<g id="edge59" class="edge">
<title>src_Core_FLX_v&#45;&gt;src_Core_Core_v</title>
<path fill="none" stroke="black" d="M707.74,-590C711.11,-587.42 714.26,-584.59 717,-581.5 758.32,-534.92 780.87,-464.1 791.09,-423.44"/>
<polygon fill="black" stroke="black" points="794.48,-424.35 793.41,-413.81 787.67,-422.71 794.48,-424.35"/>
</g>
<!-- src_Core_FLX_v&#45;&gt;src_Core_FLT_v -->
<g id="edge47" class="edge">
<title>src_Core_FLX_v&#45;&gt;src_Core_FLT_v</title>
<path fill="none" stroke="black" d="M668,-589.18C668,-573.49 668,-551.6 668,-533.64"/>
<polygon fill="black" stroke="black" points="671.5,-533.76 668,-523.76 664.5,-533.76 671.5,-533.76"/>
</g>
<!-- src_Core_FLX_v&#45;&gt;src_Core_FTZ_v -->
<g id="edge68" class="edge">
<title>src_Core_FLX_v&#45;&gt;src_Core_FTZ_v</title>
<path fill="none" stroke="black" d="M707.76,-598.71C724.1,-593.87 743.11,-587.85 760,-581.5 804.14,-564.91 852.93,-542.77 888.25,-526.03"/>
<polygon fill="black" stroke="black" points="889.41,-529.35 896.93,-521.89 886.4,-523.03 889.41,-529.35"/>
</g>
<!-- src_Core_FTZ_v&#45;&gt;src_Prop_Double_rounding_v -->
<g id="edge125" class="edge">
<title>src_Core_FTZ_v&#45;&gt;src_Prop_Double_rounding_v</title>
<path fill="none" stroke="black" d="M946.33,-479.3C962.5,-439.56 998.25,-351.73 1017.37,-304.78"/>
<polygon fill="black" stroke="black" points="1020.53,-306.3 1021.06,-295.72 1014.04,-303.67 1020.53,-306.3"/>
</g>
<!-- src_Core_Float_prop_v&#45;&gt;src_Core_Core_v -->
<g id="edge60" class="edge">
<title>src_Core_Float_prop_v&#45;&gt;src_Core_Core_v</title>
<path fill="none" stroke="black" d="M983.7,-981.6C988.19,-971.16 993.14,-958.15 996,-946 1032.37,-791.28 1039.66,-747.66 1024,-589.5 1019.09,-539.89 1033.39,-518.24 1002,-479.5 962.65,-430.93 891.32,-408.69 844.3,-398.9"/>
<polygon fill="black" stroke="black" points="845.16,-395.51 834.68,-397.02 843.82,-402.38 845.16,-395.51"/>
</g>
<!-- src_Core_Float_prop_v&#45;&gt;src_Core_FLT_v -->
<g id="edge48" class="edge">
<title>src_Core_Float_prop_v&#45;&gt;src_Core_FLT_v</title>
<path fill="none" stroke="black" d="M971.13,-981.73C964.31,-937.05 944.56,-828.38 904,-746.5 865.02,-667.8 846.26,-651.45 784,-589.5 761.19,-566.8 732.34,-544.96 709.12,-528.74"/>
<polygon fill="black" stroke="black" points="711.34,-526.02 701.12,-523.23 707.37,-531.78 711.34,-526.02"/>
</g>
<!-- src_Core_Float_prop_v&#45;&gt;src_Core_FLX_v -->
<g id="edge38" class="edge">
<title>src_Core_Float_prop_v&#45;&gt;src_Core_FLX_v</title>
<path fill="none" stroke="black" d="M959.55,-981.77C935.94,-948.47 887.36,-880.71 844,-825 791.78,-757.91 727.58,-681.58 692.97,-640.91"/>
<polygon fill="black" stroke="black" points="695.77,-638.81 686.62,-633.47 690.44,-643.35 695.77,-638.81"/>
</g>
<!-- src_Core_Float_prop_v&#45;&gt;src_Core_FTZ_v -->
<g id="edge69" class="edge">
<title>src_Core_Float_prop_v&#45;&gt;src_Core_FTZ_v</title>
<path fill="none" stroke="black" d="M979.42,-981.86C986.78,-952.38 999,-896.04 999,-847.25 999,-847.25 999,-847.25 999,-766.75 999,-680.25 967.75,-581.82 949.99,-532.85"/>
<polygon fill="black" stroke="black" points="953.37,-531.92 946.62,-523.75 946.81,-534.35 953.37,-531.92"/>
</g>
<!-- src_Core_Float_prop_v&#45;&gt;src_Core_Generic_fmt_v -->
<g id="edge12" class="edge">
<title>src_Core_Float_prop_v&#45;&gt;src_Core_Generic_fmt_v</title>
<path fill="none" stroke="black" d="M927.45,-986.49C893.58,-975.03 847.35,-959.38 810.3,-946.84"/>
<polygon fill="black" stroke="black" points="811.65,-943.6 801.05,-943.71 809.4,-950.23 811.65,-943.6"/>
</g>
<!-- src_Core_Float_prop_v&#45;&gt;src_Core_Round_NE_v -->
<g id="edge23" class="edge">
<title>src_Core_Float_prop_v&#45;&gt;src_Core_Round_NE_v</title>
<path fill="none" stroke="black" d="M947.24,-981.55C900.06,-945.79 798.07,-871.82 703,-825 669.62,-808.56 630.21,-794.7 598.73,-784.86"/>
<polygon fill="black" stroke="black" points="599.99,-781.58 589.4,-781.99 597.93,-788.27 599.99,-781.58"/>
</g>
<!-- src_Core_Float_prop_v&#45;&gt;src_Core_Ulp_v -->
<g id="edge17" class="edge">
<title>src_Core_Float_prop_v&#45;&gt;src_Core_Ulp_v</title>
<path fill="none" stroke="black" d="M927.43,-1001.76C868.22,-999.28 764.51,-988.55 688,-946 671.97,-937.09 641.14,-902.15 619.61,-876.35"/>
<polygon fill="black" stroke="black" points="622.46,-874.3 613.39,-868.83 617.07,-878.76 622.46,-874.3"/>
</g>
<!-- src_Core_Float_prop_v&#45;&gt;src_Calc_Bracket_v -->
<g id="edge76" class="edge">
<title>src_Core_Float_prop_v&#45;&gt;src_Calc_Bracket_v</title>
<path fill="none" stroke="black" d="M1020.47,-998.88C1091.2,-992.79 1221.15,-977.56 1254,-946 1286.57,-914.71 1278,-892.42 1278,-847.25 1278,-847.25 1278,-847.25 1278,-688.25 1278,-633.86 1281.44,-570.62 1283.81,-533.52"/>
<polygon fill="black" stroke="black" points="1287.27,-534.15 1284.43,-523.95 1280.29,-533.7 1287.27,-534.15"/>
</g>
<!-- src_Core_Float_prop_v&#45;&gt;src_Calc_Div_v -->
<g id="edge86" class="edge">
<title>src_Core_Float_prop_v&#45;&gt;src_Calc_Div_v</title>
<path fill="none" stroke="black" d="M1020.51,-999.48C1058.63,-994.58 1110.89,-981.35 1140,-946 1273.04,-784.46 1108.47,-665.7 1204,-479.5 1216.14,-455.84 1237.17,-434.92 1255.96,-419.44"/>
<polygon fill="black" stroke="black" points="1258.12,-422.2 1263.77,-413.24 1253.77,-416.72 1258.12,-422.2"/>
</g>
<!-- src_Core_Float_prop_v&#45;&gt;src_Calc_Operations_v -->
<g id="edge80" class="edge">
<title>src_Core_Float_prop_v&#45;&gt;src_Calc_Operations_v</title>
<path fill="none" stroke="black" d="M1020.39,-999.7C1063.33,-995.05 1126.62,-982.06 1168,-946 1196.8,-920.9 1193.38,-904.47 1203,-867.5 1224.81,-783.72 1174.88,-538.75 1238,-479.5 1250.16,-468.09 1523.31,-479.39 1538,-471.5 1557.69,-460.93 1571.97,-440.04 1581.18,-422.29"/>
<polygon fill="black" stroke="black" points="1584.15,-424.19 1585.36,-413.67 1577.85,-421.14 1584.15,-424.19"/>
</g>
<!-- src_Core_Float_prop_v&#45;&gt;src_Calc_Round_v -->
<g id="edge100" class="edge">
<title>src_Core_Float_prop_v&#45;&gt;src_Calc_Round_v</title>
<path fill="none" stroke="black" d="M1020.72,-999.19C1096.23,-993.36 1240.51,-978.24 1279,-946 1314.93,-915.9 1316,-894.12 1316,-847.25 1316,-847.25 1316,-847.25 1316,-766.75 1316,-636.99 1360.25,-486.91 1381.22,-423.08"/>
<polygon fill="black" stroke="black" points="1384.53,-424.22 1384.37,-413.62 1377.89,-422 1384.53,-424.22"/>
</g>
<!-- src_Core_Float_prop_v&#45;&gt;src_Calc_Sqrt_v -->
<g id="edge93" class="edge">
<title>src_Core_Float_prop_v&#45;&gt;src_Calc_Sqrt_v</title>
<path fill="none" stroke="black" d="M1020.69,-995.69C1110,-982.95 1297.17,-955.33 1308,-946 1470.02,-806.46 1487.9,-519.82 1489.19,-423.86"/>
<polygon fill="black" stroke="black" points="1492.69,-423.9 1489.27,-413.88 1485.69,-423.85 1492.69,-423.9"/>
</g>
<!-- src_Core_Generic_fmt_v&#45;&gt;src_Core_Core_v -->
<g id="edge61" class="edge">
<title>src_Core_Generic_fmt_v&#45;&gt;src_Core_Core_v</title>
<path fill="none" stroke="black" d="M751.65,-903.23C753.45,-892.59 755.54,-879.38 757,-867.5 777.5,-700.75 791.24,-499.86 796.07,-423.39"/>
<polygon fill="black" stroke="black" points="799.55,-423.92 796.68,-413.72 792.56,-423.48 799.55,-423.92"/>
</g>
<!-- src_Core_Generic_fmt_v&#45;&gt;src_Core_FIX_v -->
<g id="edge30" class="edge">
<title>src_Core_Generic_fmt_v&#45;&gt;src_Core_FIX_v</title>
<path fill="none" stroke="black" d="M739.79,-903.23C731.41,-882.93 717.58,-851.17 703,-825 682.03,-787.35 653.93,-746.51 634.74,-719.78"/>
<polygon fill="black" stroke="black" points="637.69,-717.88 628.99,-711.83 632.02,-721.98 637.69,-717.88"/>
</g>
<!-- src_Core_Generic_fmt_v&#45;&gt;src_Core_FLT_v -->
<g id="edge49" class="edge">
<title>src_Core_Generic_fmt_v&#45;&gt;src_Core_FLT_v</title>
<path fill="none" stroke="black" d="M749.82,-903.12C753.83,-849.71 760.31,-703.12 723,-589.5 716.11,-568.51 703.16,-547.45 691.56,-531.23"/>
<polygon fill="black" stroke="black" points="694.6,-529.45 685.84,-523.49 688.97,-533.61 694.6,-529.45"/>
</g>
<!-- src_Core_Generic_fmt_v&#45;&gt;src_Core_FLX_v -->
<g id="edge39" class="edge">
<title>src_Core_Generic_fmt_v&#45;&gt;src_Core_FLX_v</title>
<path fill="none" stroke="black" d="M742.75,-903.28C729.1,-850.06 692.44,-707.07 676.08,-643.25"/>
<polygon fill="black" stroke="black" points="679.52,-642.58 673.64,-633.76 672.74,-644.32 679.52,-642.58"/>
</g>
<!-- src_Core_Generic_fmt_v&#45;&gt;src_Core_FTZ_v -->
<g id="edge70" class="edge">
<title>src_Core_Generic_fmt_v&#45;&gt;src_Core_FTZ_v</title>
<path fill="none" stroke="black" d="M782.76,-903.07C821.57,-877.06 879,-828.47 879,-768.75 879,-768.75 879,-768.75 879,-688.25 879,-631.07 904.52,-568.43 922,-532.24"/>
<polygon fill="black" stroke="black" points="924.93,-534.2 926.23,-523.69 918.66,-531.1 924.93,-534.2"/>
</g>
<!-- src_Core_Generic_fmt_v&#45;&gt;src_Core_Round_NE_v -->
<g id="edge24" class="edge">
<title>src_Core_Generic_fmt_v&#45;&gt;src_Core_Round_NE_v</title>
<path fill="none" stroke="black" d="M735.75,-903.44C719.23,-876.25 691.03,-830.76 684,-825 659.37,-804.82 626.61,-791.2 598.77,-782.42"/>
<polygon fill="black" stroke="black" points="600,-779.14 589.41,-779.61 597.99,-785.84 600,-779.14"/>
</g>
<!-- src_Core_Generic_fmt_v&#45;&gt;src_Core_Ulp_v -->
<g id="edge18" class="edge">
<title>src_Core_Generic_fmt_v&#45;&gt;src_Core_Ulp_v</title>
<path fill="none" stroke="black" d="M706.87,-903.05C688.53,-893.82 666.74,-882.85 647.35,-873.1"/>
<polygon fill="black" stroke="black" points="649.02,-870.02 638.52,-868.65 645.88,-876.27 649.02,-870.02"/>
</g>
<!-- src_Core_Generic_fmt_v&#45;&gt;src_Calc_Div_v -->
<g id="edge87" class="edge">
<title>src_Core_Generic_fmt_v&#45;&gt;src_Calc_Div_v</title>
<path fill="none" stroke="black" d="M799.64,-922.96C894.75,-918.47 1088,-893.95 1088,-768.75 1088,-768.75 1088,-768.75 1088,-688.25 1088,-593.78 1071.73,-555.37 1128,-479.5 1156.41,-441.19 1206.54,-418.07 1244.48,-405.26"/>
<polygon fill="black" stroke="black" points="1245.45,-408.62 1253.89,-402.22 1243.3,-401.96 1245.45,-408.62"/>
</g>
<!-- src_Core_Generic_fmt_v&#45;&gt;src_Calc_Sqrt_v -->
<g id="edge94" class="edge">
<title>src_Core_Generic_fmt_v&#45;&gt;src_Calc_Sqrt_v</title>
<path fill="none" stroke="black" d="M799.8,-919.62C878.02,-912.54 1021.66,-896.04 1064,-867.5 1106.97,-838.53 1126,-820.57 1126,-768.75 1126,-768.75 1126,-768.75 1126,-688.25 1126,-589.21 1123.59,-537.33 1204,-479.5 1225.39,-464.12 1418.28,-484.85 1441,-471.5 1459.23,-460.79 1471.36,-440.19 1478.87,-422.61"/>
<polygon fill="black" stroke="black" points="1482.02,-424.17 1482.41,-413.58 1475.5,-421.62 1482.02,-424.17"/>
</g>
<!-- src_Core_Generic_fmt_v&#45;&gt;src_Prop_Sterbenz_v -->
<g id="edge108" class="edge">
<title>src_Core_Generic_fmt_v&#45;&gt;src_Prop_Sterbenz_v</title>
<path fill="none" stroke="black" d="M696.14,-920.55C557.01,-910.55 186,-874.01 186,-768.75 186,-768.75 186,-768.75 186,-688.25 186,-591.47 185.93,-553.76 248,-479.5 442.09,-247.32 568.92,-268.72 856,-173 945.8,-143.06 1055.61,-128.06 1119.01,-121.37"/>
<polygon fill="black" stroke="black" points="1119.2,-124.87 1128.79,-120.37 1118.48,-117.91 1119.2,-124.87"/>
</g>
<!-- src_Core_Raux_v -->
<g id="node10" class="node">
<title>src_Core_Raux_v</title>
<polygon fill="none" stroke="black" points="736,-1181.5 648,-1181.5 648,-1139 736,-1139 736,-1181.5"/>
<text text-anchor="middle" x="692" y="-1164.2" font-family="Times,serif" font-size="14.00">Raux</text>
<text text-anchor="middle" x="692" y="-1146.95" font-family="Times,serif" font-size="14.00">(169 defs)</text>
</g>
<!-- src_Core_Raux_v&#45;&gt;src_Core_Core_v -->
<g id="edge62" class="edge">
<title>src_Core_Raux_v&#45;&gt;src_Core_Core_v</title>
<path fill="none" stroke="black" d="M647.75,-1153.18C571.16,-1142.3 420.26,-1119.13 402,-1103 284.9,-999.55 293,-925 293,-768.75 293,-768.75 293,-768.75 293,-609.75 293,-550.89 273.98,-519.67 317,-479.5 328.44,-468.81 371.53,-473.88 387,-471.5 520.08,-451.02 675.76,-418.42 751.66,-401.97"/>
<polygon fill="black" stroke="black" points="752.2,-405.43 761.22,-399.88 750.71,-398.59 752.2,-405.43"/>
</g>
<!-- src_Core_Raux_v&#45;&gt;src_Core_Defs_v -->
<g id="edge2" class="edge">
<title>src_Core_Raux_v&#45;&gt;src_Core_Defs_v</title>
<path fill="none" stroke="black" d="M736.22,-1139.35C759.36,-1128.94 787.78,-1116.15 811.75,-1105.36"/>
<polygon fill="black" stroke="black" points="813,-1108.64 820.69,-1101.34 810.13,-1102.25 813,-1108.64"/>
</g>
<!-- src_Core_Raux_v&#45;&gt;src_Core_FIX_v -->
<g id="edge31" class="edge">
<title>src_Core_Raux_v&#45;&gt;src_Core_FIX_v</title>
<path fill="none" stroke="black" d="M647.8,-1151.8C594.8,-1142.1 510.09,-1123.89 486,-1103 457.27,-1078.09 459.72,-1061.73 452,-1024.5 426.72,-902.51 409.31,-843.09 488,-746.5 507.75,-722.26 540.16,-708.08 567.02,-700.03"/>
<polygon fill="black" stroke="black" points="567.61,-703.5 576.31,-697.44 565.74,-696.75 567.61,-703.5"/>
</g>
<!-- src_Core_Raux_v&#45;&gt;src_Core_FLT_v -->
<g id="edge50" class="edge">
<title>src_Core_Raux_v&#45;&gt;src_Core_FLT_v</title>
<path fill="none" stroke="black" d="M647.53,-1152.92C575.15,-1142.18 438.46,-1119.92 424,-1103 372.51,-1042.78 396.77,-822.25 420,-746.5 443.91,-668.53 456.66,-646.49 515,-589.5 544.75,-560.44 585.99,-537.52 618.16,-522.4"/>
<polygon fill="black" stroke="black" points="619.25,-525.75 626.88,-518.4 616.34,-519.39 619.25,-525.75"/>
</g>
<!-- src_Core_Raux_v&#45;&gt;src_Core_FLX_v -->
<g id="edge40" class="edge">
<title>src_Core_Raux_v&#45;&gt;src_Core_FLX_v</title>
<path fill="none" stroke="black" d="M647.72,-1154.42C586.71,-1146.86 481.33,-1130.19 455,-1103 405.69,-1052.09 432.37,-1016.68 427,-946 417.33,-818.73 403.98,-753.21 499,-668 531.86,-638.53 580.61,-624.44 617.32,-617.73"/>
<polygon fill="black" stroke="black" points="617.53,-621.25 626.81,-616.13 616.36,-614.35 617.53,-621.25"/>
</g>
<!-- src_Core_Raux_v&#45;&gt;src_Core_FTZ_v -->
<g id="edge71" class="edge">
<title>src_Core_Raux_v&#45;&gt;src_Core_FTZ_v</title>
<path fill="none" stroke="black" d="M703.5,-1138.78C724.72,-1100.91 771.29,-1017.3 809,-946 827.31,-911.39 835.39,-904.22 849,-867.5 893.37,-747.8 921.85,-597.82 932.85,-533.46"/>
<polygon fill="black" stroke="black" points="936.24,-534.4 934.45,-523.96 929.34,-533.24 936.24,-534.4"/>
</g>
<!-- src_Core_Raux_v&#45;&gt;src_Core_Float_prop_v -->
<g id="edge7" class="edge">
<title>src_Core_Raux_v&#45;&gt;src_Core_Float_prop_v</title>
<path fill="none" stroke="black" d="M736.16,-1157.71C783.69,-1153.99 859.41,-1141.83 911,-1103 928.51,-1089.82 924.3,-1079.03 936,-1060.5 941.42,-1051.9 947.51,-1042.71 953.19,-1034.31"/>
<polygon fill="black" stroke="black" points="956.02,-1036.37 958.76,-1026.13 950.24,-1032.43 956.02,-1036.37"/>
</g>
<!-- src_Core_Raux_v&#45;&gt;src_Core_Generic_fmt_v -->
<g id="edge13" class="edge">
<title>src_Core_Raux_v&#45;&gt;src_Core_Generic_fmt_v</title>
<path fill="none" stroke="black" d="M696.97,-1138.53C706.79,-1097.59 728.72,-1006.12 740.38,-957.52"/>
<polygon fill="black" stroke="black" points="743.76,-958.44 742.69,-947.9 736.95,-956.8 743.76,-958.44"/>
</g>
<!-- src_Core_Raux_v&#45;&gt;src_Core_Round_NE_v -->
<g id="edge25" class="edge">
<title>src_Core_Raux_v&#45;&gt;src_Core_Round_NE_v</title>
<path fill="none" stroke="black" d="M647.86,-1149.08C591.96,-1133.39 499.07,-1097.19 467,-1024.5 432.4,-946.08 487.14,-847.24 520.05,-798.59"/>
<polygon fill="black" stroke="black" points="522.82,-800.73 525.64,-790.52 517.07,-796.75 522.82,-800.73"/>
</g>
<!-- src_Core_Raux_v&#45;&gt;src_Core_Round_pred_v -->
<g id="edge10" class="edge">
<title>src_Core_Raux_v&#45;&gt;src_Core_Round_pred_v</title>
<path fill="none" stroke="black" d="M647.66,-1140.07C629.12,-1130.66 608.17,-1118.08 592,-1103 571.07,-1083.48 553.66,-1055.93 542.14,-1034.88"/>
<polygon fill="black" stroke="black" points="545.3,-1033.38 537.52,-1026.18 539.12,-1036.66 545.3,-1033.38"/>
</g>
<!-- src_Core_Raux_v&#45;&gt;src_Core_Ulp_v -->
<g id="edge19" class="edge">
<title>src_Core_Raux_v&#45;&gt;src_Core_Ulp_v</title>
<path fill="none" stroke="black" d="M680.6,-1138.54C660.73,-1101.32 620.25,-1020.04 603,-946 597.9,-924.1 596.18,-898.79 595.72,-879.28"/>
<polygon fill="black" stroke="black" points="599.23,-879.43 595.6,-869.47 592.23,-879.51 599.23,-879.43"/>
</g>
<!-- src_Core_Raux_v&#45;&gt;src_Calc_Bracket_v -->
<g id="edge77" class="edge">
<title>src_Core_Raux_v&#45;&gt;src_Calc_Bracket_v</title>
<path fill="none" stroke="black" d="M736.24,-1156.08C807.4,-1150.22 951.24,-1135.24 1069,-1103 1201.78,-1066.65 1259.68,-1060.57 1336,-946 1423.87,-814.09 1410.59,-733.79 1345,-589.5 1335.6,-568.82 1321.51,-547.64 1309.45,-531.26"/>
<polygon fill="black" stroke="black" points="1312.36,-529.31 1303.55,-523.43 1306.77,-533.52 1312.36,-529.31"/>
</g>
<!-- src_Core_Raux_v&#45;&gt;src_Calc_Div_v -->
<g id="edge88" class="edge">
<title>src_Core_Raux_v&#45;&gt;src_Calc_Div_v</title>
<path fill="none" stroke="black" d="M736.32,-1159.09C819.78,-1157.65 1005.19,-1149.01 1153,-1103 1224.84,-1080.64 1245.65,-1073.22 1303,-1024.5 1398.31,-943.53 1423.39,-909.46 1457,-789 1462.08,-770.81 1457.84,-765.37 1457,-746.5 1451.56,-624.17 1482.1,-559.05 1389,-479.5 1373.56,-466.3 1360.79,-482.93 1344,-471.5 1326.65,-459.68 1314.33,-439.48 1306.39,-422.37"/>
<polygon fill="black" stroke="black" points="1309.78,-421.4 1302.6,-413.61 1303.35,-424.17 1309.78,-421.4"/>
</g>
<!-- src_Core_Raux_v&#45;&gt;src_Calc_Operations_v -->
<g id="edge81" class="edge">
<title>src_Core_Raux_v&#45;&gt;src_Calc_Operations_v</title>
<path fill="none" stroke="black" d="M736.26,-1159.92C948.06,-1161.95 1848,-1156.99 1848,-925.75 1848,-925.75 1848,-925.75 1848,-609.75 1848,-545.64 1831.69,-524.48 1786,-479.5 1748.96,-443.03 1694.03,-420.04 1652.4,-406.78"/>
<polygon fill="black" stroke="black" points="1653.62,-403.49 1643.03,-403.9 1651.56,-410.19 1653.62,-403.49"/>
</g>
<!-- src_Core_Raux_v&#45;&gt;src_Calc_Sqrt_v -->
<g id="edge95" class="edge">
<title>src_Core_Raux_v&#45;&gt;src_Calc_Sqrt_v</title>
<path fill="none" stroke="black" d="M736.24,-1157.82C897.29,-1151.85 1450.14,-1124.33 1590,-1024.5 1664.71,-971.17 1696,-939.04 1696,-847.25 1696,-847.25 1696,-847.25 1696,-609.75 1696,-549.92 1708.14,-517.58 1662,-479.5 1640.7,-461.92 1561.65,-485.75 1538,-471.5 1519.9,-460.6 1507.55,-440.2 1499.77,-422.76"/>
<polygon fill="black" stroke="black" points="1503.13,-421.72 1496.09,-413.8 1496.65,-424.38 1503.13,-421.72"/>
</g>
<!-- src_Core_Raux_v&#45;&gt;src_Prop_Sterbenz_v -->
<g id="edge109" class="edge">
<title>src_Core_Raux_v&#45;&gt;src_Prop_Sterbenz_v</title>
<path fill="none" stroke="black" d="M736.26,-1158.5C898.97,-1155.44 1463.6,-1142.19 1639,-1103 1754.38,-1077.22 1886,-1122.48 1886,-1004.25 1886,-1004.25 1886,-1004.25 1886,-271.75 1886,-136.01 1387.55,-118.88 1223.01,-116.93"/>
<polygon fill="black" stroke="black" points="1223.3,-113.43 1213.26,-116.83 1223.23,-120.43 1223.3,-113.43"/>
</g>
<!-- src_Core_Round_NE_v&#45;&gt;src_Core_Core_v -->
<g id="edge63" class="edge">
<title>src_Core_Round_NE_v&#45;&gt;src_Core_Core_v</title>
<path fill="none" stroke="black" d="M537.29,-746.24C533.35,-726.21 528.98,-694.9 533,-668 546.64,-576.74 552.76,-542.69 620,-479.5 657.98,-443.81 713.23,-419.66 752.08,-405.87"/>
<polygon fill="black" stroke="black" points="752.83,-409.31 761.14,-402.75 750.55,-402.7 752.83,-409.31"/>
</g>
<!-- src_Core_Round_NE_v&#45;&gt;src_Core_FIX_v -->
<g id="edge32" class="edge">
<title>src_Core_Round_NE_v&#45;&gt;src_Core_FIX_v</title>
<path fill="none" stroke="black" d="M561.03,-746.25C568.75,-737.93 577.8,-728.17 586.17,-719.16"/>
<polygon fill="black" stroke="black" points="588.65,-721.63 592.89,-711.92 583.52,-716.87 588.65,-721.63"/>
</g>
<!-- src_Core_Round_NE_v&#45;&gt;src_Core_FLT_v -->
<g id="edge51" class="edge">
<title>src_Core_Round_NE_v&#45;&gt;src_Core_FLT_v</title>
<path fill="none" stroke="black" d="M539.12,-746.06C537.07,-725.62 536.07,-693.77 545,-668 564.02,-613.12 608.13,-561.2 638.02,-530.43"/>
<polygon fill="black" stroke="black" points="640.43,-532.97 644.97,-523.4 635.45,-528.04 640.43,-532.97"/>
</g>
<!-- src_Core_Round_NE_v&#45;&gt;src_Core_FLX_v -->
<g id="edge41" class="edge">
<title>src_Core_Round_NE_v&#45;&gt;src_Core_FLX_v</title>
<path fill="none" stroke="black" d="M543.06,-746.18C545.14,-724.66 551.23,-690.88 569,-668 581.57,-651.82 600.19,-639.52 617.9,-630.61"/>
<polygon fill="black" stroke="black" points="619.26,-633.84 626.81,-626.4 616.27,-627.51 619.26,-633.84"/>
</g>
<!-- src_Core_Round_pred_v&#45;&gt;src_Core_Core_v -->
<g id="edge64" class="edge">
<title>src_Core_Round_pred_v&#45;&gt;src_Core_Core_v</title>
<path fill="none" stroke="black" d="M499.98,-981.72C443.26,-936.06 317,-819.86 317,-690.25 317,-690.25 317,-690.25 317,-609.75 317,-420.31 630.33,-394.66 751.21,-391.81"/>
<polygon fill="black" stroke="black" points="751.19,-395.31 761.12,-391.62 751.05,-388.31 751.19,-395.31"/>
</g>
<!-- src_Core_Round_pred_v&#45;&gt;src_Core_FIX_v -->
<g id="edge33" class="edge">
<title>src_Core_Round_pred_v&#45;&gt;src_Core_FIX_v</title>
<path fill="none" stroke="black" d="M527.86,-981.77C529.83,-937.99 535.14,-838.21 543,-825 557.74,-800.21 581.39,-813.26 597,-789 609.73,-769.22 613.47,-742.73 614.16,-722.17"/>
<polygon fill="black" stroke="black" points="617.66,-722.39 614.26,-712.36 610.66,-722.32 617.66,-722.39"/>
</g>
<!-- src_Core_Round_pred_v&#45;&gt;src_Core_FLT_v -->
<g id="edge52" class="edge">
<title>src_Core_Round_pred_v&#45;&gt;src_Core_FLT_v</title>
<path fill="none" stroke="black" d="M508.95,-981.71C501.01,-971.6 492.3,-958.85 487,-946 453.14,-863.88 461.31,-834.27 475,-746.5 487.13,-668.72 502.25,-646.07 557,-589.5 578.83,-566.95 606.51,-545.05 628.77,-528.78"/>
<polygon fill="black" stroke="black" points="630.66,-531.73 636.72,-523.04 626.56,-526.05 630.66,-531.73"/>
</g>
<!-- src_Core_Round_pred_v&#45;&gt;src_Core_FLX_v -->
<g id="edge42" class="edge">
<title>src_Core_Round_pred_v&#45;&gt;src_Core_FLX_v</title>
<path fill="none" stroke="black" d="M517.53,-981.51C498.69,-937.28 460.6,-830.87 488,-746.5 501.32,-705.49 511.63,-695.31 545,-668 566.35,-650.53 594.02,-637.24 617.7,-627.98"/>
<polygon fill="black" stroke="black" points="618.72,-631.34 626.85,-624.54 616.26,-624.79 618.72,-631.34"/>
</g>
<!-- src_Core_Round_pred_v&#45;&gt;src_Core_FTZ_v -->
<g id="edge72" class="edge">
<title>src_Core_Round_pred_v&#45;&gt;src_Core_FTZ_v</title>
<path fill="none" stroke="black" d="M546.45,-981.62C570.89,-955.49 613.89,-908.89 649,-867.5 735.45,-765.58 753.24,-736.95 836,-632 863.36,-597.3 894.68,-557.26 915.31,-530.84"/>
<polygon fill="black" stroke="black" points="917.82,-533.32 921.21,-523.28 912.3,-529.01 917.82,-533.32"/>
</g>
<!-- src_Core_Round_pred_v&#45;&gt;src_Core_Generic_fmt_v -->
<g id="edge14" class="edge">
<title>src_Core_Round_pred_v&#45;&gt;src_Core_Generic_fmt_v</title>
<path fill="none" stroke="black" d="M577.98,-984.6C609.96,-973.53 651.41,-959.18 685.38,-947.43"/>
<polygon fill="black" stroke="black" points="686.39,-950.78 694.7,-944.2 684.1,-944.16 686.39,-950.78"/>
</g>
<!-- src_Core_Round_pred_v&#45;&gt;src_Core_Round_NE_v -->
<g id="edge26" class="edge">
<title>src_Core_Round_pred_v&#45;&gt;src_Core_Round_NE_v</title>
<path fill="none" stroke="black" d="M525.54,-981.68C523.53,-948.53 520.93,-881.33 528,-825 529.01,-816.95 530.77,-808.39 532.71,-800.44"/>
<polygon fill="black" stroke="black" points="536.08,-801.39 535.23,-790.83 529.31,-799.61 536.08,-801.39"/>
</g>
<!-- src_Core_Round_pred_v&#45;&gt;src_Core_Ulp_v -->
<g id="edge20" class="edge">
<title>src_Core_Round_pred_v&#45;&gt;src_Core_Ulp_v</title>
<path fill="none" stroke="black" d="M541.46,-981.52C548.28,-971.16 556.17,-958.26 562,-946 572.35,-924.24 581.12,-898.45 587.16,-878.69"/>
<polygon fill="black" stroke="black" points="590.46,-879.86 589.96,-869.28 583.75,-877.86 590.46,-879.86"/>
</g>
<!-- src_Core_Ulp_v&#45;&gt;src_Core_Core_v -->
<g id="edge65" class="edge">
<title>src_Core_Ulp_v&#45;&gt;src_Core_Core_v</title>
<path fill="none" stroke="black" d="M551.7,-834.18C528.4,-825.87 501.87,-811.86 488,-789 439.7,-709.39 316.86,-738.24 546,-479.5 598.87,-419.8 694.58,-400.71 751.61,-394.61"/>
<polygon fill="black" stroke="black" points="751.7,-398.12 761.32,-393.67 751.03,-391.15 751.7,-398.12"/>
</g>
<!-- src_Core_Ulp_v&#45;&gt;src_Core_FIX_v -->
<g id="edge34" class="edge">
<title>src_Core_Ulp_v&#45;&gt;src_Core_FIX_v</title>
<path fill="none" stroke="black" d="M603.27,-824.7C606.63,-814.17 610.26,-801.06 612,-789 615.21,-766.8 615.4,-741.49 614.82,-722.06"/>
<polygon fill="black" stroke="black" points="618.33,-722.17 614.44,-712.31 611.33,-722.44 618.33,-722.17"/>
</g>
<!-- src_Core_Ulp_v&#45;&gt;src_Core_FLT_v -->
<g id="edge53" class="edge">
<title>src_Core_Ulp_v&#45;&gt;src_Core_FLT_v</title>
<path fill="none" stroke="black" d="M613.8,-824.64C622.27,-814.32 632.23,-801.4 640,-789 681.28,-723.15 699.43,-707.71 717,-632 721.27,-613.6 721.76,-607.78 717,-589.5 711.65,-568.94 700.31,-548.1 689.88,-531.88"/>
<polygon fill="black" stroke="black" points="692.87,-530.06 684.41,-523.69 687.05,-533.95 692.87,-530.06"/>
</g>
<!-- src_Core_Ulp_v&#45;&gt;src_Core_FLX_v -->
<g id="edge43" class="edge">
<title>src_Core_Ulp_v&#45;&gt;src_Core_FLX_v</title>
<path fill="none" stroke="black" d="M607.86,-824.55C622.06,-798.74 645.37,-752.84 657,-710.5 663.01,-688.6 665.75,-663.1 666.99,-643.5"/>
<polygon fill="black" stroke="black" points="670.48,-643.83 667.51,-633.66 663.49,-643.46 670.48,-643.83"/>
</g>
<!-- src_Core_Ulp_v&#45;&gt;src_Core_FTZ_v -->
<g id="edge73" class="edge">
<title>src_Core_Ulp_v&#45;&gt;src_Core_FTZ_v</title>
<path fill="none" stroke="black" d="M619.28,-824.74C631.04,-814.23 645.45,-801.11 658,-789 708.02,-740.74 850.27,-593.1 910.51,-530.4"/>
<polygon fill="black" stroke="black" points="913,-532.86 917.4,-523.22 907.95,-528.01 913,-532.86"/>
</g>
<!-- src_Core_Ulp_v&#45;&gt;src_Core_Round_NE_v -->
<g id="edge27" class="edge">
<title>src_Core_Ulp_v&#45;&gt;src_Core_Round_NE_v</title>
<path fill="none" stroke="black" d="M581.53,-824.75C575.84,-816.69 569.2,-807.28 563,-798.5"/>
<polygon fill="black" stroke="black" points="566.01,-796.69 557.38,-790.54 560.29,-800.73 566.01,-796.69"/>
</g>
<!-- src_Core_Zaux_v -->
<g id="node14" class="node">
<title>src_Core_Zaux_v</title>
<polygon fill="none" stroke="black" points="731.5,-1260 652.5,-1260 652.5,-1217.5 731.5,-1217.5 731.5,-1260"/>
<text text-anchor="middle" x="692" y="-1242.7" font-family="Times,serif" font-size="14.00">Zaux</text>
<text text-anchor="middle" x="692" y="-1225.45" font-family="Times,serif" font-size="14.00">(80 defs)</text>
</g>
<!-- src_Core_Zaux_v&#45;&gt;src_Core_Core_v -->
<g id="edge66" class="edge">
<title>src_Core_Zaux_v&#45;&gt;src_Core_Core_v</title>
<path fill="none" stroke="black" d="M652.01,-1238.39C558.42,-1238.98 329.26,-1234.82 279,-1181.5 266.42,-1168.15 253,-1307.68 253,-768.75 253,-768.75 253,-768.75 253,-609.75 253,-550.24 240.59,-520.2 284,-479.5 286.15,-477.48 625.72,-420.55 751.69,-399.49"/>
<polygon fill="black" stroke="black" points="752.06,-402.97 761.35,-397.87 750.91,-396.07 752.06,-402.97"/>
</g>
<!-- src_Core_Zaux_v&#45;&gt;src_Core_Defs_v -->
<g id="edge3" class="edge">
<title>src_Core_Zaux_v&#45;&gt;src_Core_Defs_v</title>
<path fill="none" stroke="black" d="M714.57,-1217.17C744.55,-1189.84 797.61,-1141.46 831.23,-1110.81"/>
<polygon fill="black" stroke="black" points="833.18,-1113.76 838.21,-1104.44 828.47,-1108.59 833.18,-1113.76"/>
</g>
<!-- src_Core_Zaux_v&#45;&gt;src_Core_Digits_v -->
<g id="edge4" class="edge">
<title>src_Core_Zaux_v&#45;&gt;src_Core_Digits_v</title>
<path fill="none" stroke="black" d="M731.96,-1233.69C798.73,-1226.25 929.29,-1208.63 966,-1181.5 988.45,-1164.91 1002.66,-1136.08 1010.84,-1113.84"/>
<polygon fill="black" stroke="black" points="1014.05,-1115.25 1013.98,-1104.66 1007.43,-1112.98 1014.05,-1115.25"/>
</g>
<!-- src_Core_Zaux_v&#45;&gt;src_Core_FIX_v -->
<g id="edge35" class="edge">
<title>src_Core_Zaux_v&#45;&gt;src_Core_FIX_v</title>
<path fill="none" stroke="black" d="M652.35,-1234.03C607.34,-1228.35 533.05,-1214.45 478,-1181.5 407.22,-1139.13 392.14,-1105.94 379,-1024.5 358.62,-898.16 360.22,-833.58 454,-746.5 484.94,-717.77 531.47,-703.56 566.21,-696.63"/>
<polygon fill="black" stroke="black" points="566.82,-700.07 576.02,-694.82 565.55,-693.19 566.82,-700.07"/>
</g>
<!-- src_Core_Zaux_v&#45;&gt;src_Core_FLT_v -->
<g id="edge54" class="edge">
<title>src_Core_Zaux_v&#45;&gt;src_Core_FLT_v</title>
<path fill="none" stroke="black" d="M652.16,-1236.66C566.51,-1233.54 368.45,-1222.04 317,-1181.5 279.81,-1152.19 277,-1130.1 277,-1082.75 277,-1082.75 277,-1082.75 277,-1002.25 277,-799.55 308.4,-710.52 471,-589.5 515.94,-556.05 575.65,-531.73 617.51,-517.29"/>
<polygon fill="black" stroke="black" points="618.49,-520.65 626.84,-514.14 616.25,-514.02 618.49,-520.65"/>
</g>
<!-- src_Core_Zaux_v&#45;&gt;src_Core_FLX_v -->
<g id="edge44" class="edge">
<title>src_Core_Zaux_v&#45;&gt;src_Core_FLX_v</title>
<path fill="none" stroke="black" d="M652.17,-1235.45C597.29,-1230.99 496.43,-1218.12 419,-1181.5 355.94,-1151.67 297,-1152.51 297,-1082.75 297,-1082.75 297,-1082.75 297,-1002.25 297,-837.74 326.5,-769.45 456,-668 502.56,-631.52 570.67,-618.6 617.04,-614.08"/>
<polygon fill="black" stroke="black" points="617.16,-617.58 626.82,-613.24 616.56,-610.61 617.16,-617.58"/>
</g>
<!-- src_Core_Zaux_v&#45;&gt;src_Core_FTZ_v -->
<g id="edge74" class="edge">
<title>src_Core_Zaux_v&#45;&gt;src_Core_FTZ_v</title>
<path fill="none" stroke="black" d="M731.93,-1229.53C767.51,-1221.05 820.13,-1205.64 861,-1181.5 905.28,-1155.35 913.38,-1142.76 946,-1103 960.05,-1085.88 956.45,-1076.27 972,-1060.5 993.04,-1039.16 1013.23,-1049.98 1029,-1024.5 1052.22,-986.99 1039,-969.86 1039,-925.75 1039,-925.75 1039,-925.75 1039,-845.25 1039,-728.5 1017.25,-699.81 979,-589.5 972.22,-569.95 962.49,-548.92 954.2,-532.35"/>
<polygon fill="black" stroke="black" points="957.36,-530.84 949.7,-523.52 951.12,-534.02 957.36,-530.84"/>
</g>
<!-- src_Core_Zaux_v&#45;&gt;src_Core_Float_prop_v -->
<g id="edge8" class="edge">
<title>src_Core_Zaux_v&#45;&gt;src_Core_Float_prop_v</title>
<path fill="none" stroke="black" d="M731.58,-1223.89C782.85,-1204.18 872.25,-1163.58 928,-1103 945.61,-1083.86 957.58,-1056.79 964.88,-1035.82"/>
<polygon fill="black" stroke="black" points="968.2,-1036.93 967.99,-1026.34 961.55,-1034.75 968.2,-1036.93"/>
</g>
<!-- src_Core_Zaux_v&#45;&gt;src_Core_Generic_fmt_v -->
<g id="edge15" class="edge">
<title>src_Core_Zaux_v&#45;&gt;src_Core_Generic_fmt_v</title>
<path fill="none" stroke="black" d="M665.26,-1217.12C655,-1207.53 644.44,-1195.22 639,-1181.5 632.03,-1163.94 634.58,-1157.36 639,-1139 655.96,-1068.57 700.32,-995.23 726.93,-955.56"/>
<polygon fill="black" stroke="black" points="729.7,-957.71 732.44,-947.48 723.92,-953.77 729.7,-957.71"/>
</g>
<!-- src_Core_Zaux_v&#45;&gt;src_Core_Raux_v -->
<g id="edge1" class="edge">
<title>src_Core_Zaux_v&#45;&gt;src_Core_Raux_v</title>
<path fill="none" stroke="black" d="M692,-1217.25C692,-1209.87 692,-1201.37 692,-1193.25"/>
<polygon fill="black" stroke="black" points="695.5,-1193.32 692,-1183.32 688.5,-1193.32 695.5,-1193.32"/>
</g>
<!-- src_Core_Zaux_v&#45;&gt;src_Core_Round_NE_v -->
<g id="edge28" class="edge">
<title>src_Core_Zaux_v&#45;&gt;src_Core_Round_NE_v</title>
<path fill="none" stroke="black" d="M652.3,-1227.14C622.13,-1217.95 580.43,-1202.77 548,-1181.5 465.75,-1127.55 429.5,-1115.44 392,-1024.5 355.66,-936.37 450.39,-841.91 505.58,-796.4"/>
<polygon fill="black" stroke="black" points="507.65,-799.23 513.22,-790.21 503.25,-793.78 507.65,-799.23"/>
</g>
<!-- src_Core_Zaux_v&#45;&gt;src_Core_Ulp_v -->
<g id="edge21" class="edge">
<title>src_Core_Zaux_v&#45;&gt;src_Core_Ulp_v</title>
<path fill="none" stroke="black" d="M656.08,-1217.19C602.88,-1184.4 505.33,-1114.64 467,-1024.5 441.85,-965.36 506.01,-907.11 552.6,-874.32"/>
<polygon fill="black" stroke="black" points="554.43,-877.31 560.69,-868.77 550.47,-871.54 554.43,-877.31"/>
</g>
<!-- src_Core_Zaux_v&#45;&gt;src_Calc_Bracket_v -->
<g id="edge78" class="edge">
<title>src_Core_Zaux_v&#45;&gt;src_Calc_Bracket_v</title>
<path fill="none" stroke="black" d="M652.33,-1235.62C549.11,-1229.68 278.3,-1211.38 252,-1181.5 239.52,-1167.32 243.44,-1155.84 252,-1139 431.43,-785.8 793.6,-1117.39 1101,-867.5 1211.62,-777.57 1262.41,-604.39 1279.26,-533.34"/>
<polygon fill="black" stroke="black" points="1282.59,-534.46 1281.42,-523.93 1275.77,-532.89 1282.59,-534.46"/>
</g>
<!-- src_Core_Zaux_v&#45;&gt;src_Calc_Div_v -->
<g id="edge89" class="edge">
<title>src_Core_Zaux_v&#45;&gt;src_Calc_Div_v</title>
<path fill="none" stroke="black" d="M731.81,-1235.44C893.7,-1225.04 1498.36,-1176.36 1590,-1024.5 1655.06,-916.69 1537.96,-551.98 1435,-479.5 1418.4,-467.81 1361.27,-482.18 1344,-471.5 1326.03,-460.39 1313.67,-439.99 1305.86,-422.61"/>
<polygon fill="black" stroke="black" points="1309.23,-421.58 1302.16,-413.68 1302.76,-424.26 1309.23,-421.58"/>
</g>
<!-- src_Core_Zaux_v&#45;&gt;src_Calc_Operations_v -->
<g id="edge82" class="edge">
<title>src_Core_Zaux_v&#45;&gt;src_Calc_Operations_v</title>
<path fill="none" stroke="black" d="M731.97,-1235.64C839.85,-1229.71 1145.87,-1211.36 1399,-1181.5 1516.9,-1167.59 1924,-1201.46 1924,-1082.75 1924,-1082.75 1924,-1082.75 1924,-609.75 1924,-481.25 1747.65,-424.12 1652.78,-402.69"/>
<polygon fill="black" stroke="black" points="1653.63,-399.29 1643.11,-400.58 1652.13,-406.13 1653.63,-399.29"/>
</g>
<!-- src_Core_Zaux_v&#45;&gt;src_Calc_Sqrt_v -->
<g id="edge96" class="edge">
<title>src_Core_Zaux_v&#45;&gt;src_Calc_Sqrt_v</title>
<path fill="none" stroke="black" d="M731.81,-1235.32C849.28,-1227.94 1193.08,-1204.89 1303,-1181.5 1409.06,-1158.93 1442.21,-1160.72 1534,-1103 1597.52,-1063.06 1772,-881.14 1772,-847.25 1772,-847.25 1772,-847.25 1772,-609.75 1772,-542.05 1751.12,-514.23 1693,-479.5 1663.39,-461.81 1567.66,-489.11 1538,-471.5 1519.83,-460.72 1507.48,-440.31 1499.72,-422.85"/>
<polygon fill="black" stroke="black" points="1503.07,-421.79 1496.05,-413.86 1496.59,-424.44 1503.07,-421.79"/>
</g>
<!-- src_Core_Zaux_v&#45;&gt;src_Prop_Sterbenz_v -->
<g id="edge110" class="edge">
<title>src_Core_Zaux_v&#45;&gt;src_Prop_Sterbenz_v</title>
<path fill="none" stroke="black" d="M731.78,-1235.01C808.17,-1229.77 980.72,-1218.12 1126,-1209.5 1358.37,-1195.72 1419.22,-1218.74 1649,-1181.5 1792.99,-1158.16 1962,-1228.62 1962,-1082.75 1962,-1082.75 1962,-1082.75 1962,-271.75 1962,-195.24 1892.9,-199.14 1821,-173 1711.22,-133.1 1356.46,-120.98 1222.69,-117.78"/>
<polygon fill="black" stroke="black" points="1223.16,-114.29 1213.08,-117.55 1222.99,-121.28 1223.16,-114.29"/>
</g>
<!-- src_Calc_Bracket_v&#45;&gt;src_Calc_Div_v -->
<g id="edge83" class="edge">
<title>src_Calc_Bracket_v&#45;&gt;src_Calc_Div_v</title>
<path fill="none" stroke="black" d="M1287.71,-479.18C1289.02,-463.49 1290.85,-441.6 1292.34,-423.64"/>
<polygon fill="black" stroke="black" points="1295.82,-424.01 1293.17,-413.75 1288.85,-423.42 1295.82,-424.01"/>
</g>
<!-- src_Calc_Bracket_v&#45;&gt;src_Calc_Plus_v -->
<g id="edge101" class="edge">
<title>src_Calc_Bracket_v&#45;&gt;src_Calc_Plus_v</title>
<path fill="none" stroke="black" d="M1252.46,-479.34C1250.32,-476.94 1248.44,-474.33 1247,-471.5 1224.77,-427.96 1228.39,-406.71 1247,-361.5 1256.83,-337.63 1276.63,-316.82 1294.87,-301.46"/>
<polygon fill="black" stroke="black" points="1296.89,-304.33 1302.47,-295.32 1292.49,-298.88 1296.89,-304.33"/>
</g>
<!-- src_Calc_Bracket_v&#45;&gt;src_Calc_Round_v -->
<g id="edge97" class="edge">
<title>src_Calc_Bracket_v&#45;&gt;src_Calc_Round_v</title>
<path fill="none" stroke="black" d="M1325.71,-484.25C1332.25,-480.66 1338.63,-476.42 1344,-471.5 1358.86,-457.9 1370.64,-438.63 1378.8,-422.44"/>
<polygon fill="black" stroke="black" points="1381.82,-424.23 1382.99,-413.7 1375.51,-421.2 1381.82,-424.23"/>
</g>
<!-- src_Calc_Bracket_v&#45;&gt;src_Calc_Sqrt_v -->
<g id="edge90" class="edge">
<title>src_Calc_Bracket_v&#45;&gt;src_Calc_Sqrt_v</title>
<path fill="none" stroke="black" d="M1325.97,-496.21C1365.54,-492.06 1422.77,-484.09 1441,-471.5 1458.18,-459.63 1470.24,-439.43 1477.98,-422.33"/>
<polygon fill="black" stroke="black" points="1481.01,-424.16 1481.66,-413.58 1474.55,-421.45 1481.01,-424.16"/>
</g>
<!-- src_Calc_Operations_v&#45;&gt;src_Calc_Plus_v -->
<g id="edge102" class="edge">
<title>src_Calc_Operations_v&#45;&gt;src_Calc_Plus_v</title>
<path fill="none" stroke="black" d="M1558.41,-369.13C1551.8,-366.09 1544.83,-363.35 1538,-361.5 1510.49,-354.04 1435.83,-365.53 1410,-353.5 1386.67,-342.63 1366.87,-321.16 1353.34,-303.23"/>
<polygon fill="black" stroke="black" points="1356.43,-301.53 1347.73,-295.48 1350.75,-305.63 1356.43,-301.53"/>
</g>
<!-- src_Calc_Operations_v&#45;&gt;src_Prop_Div_sqrt_error_v -->
<g id="edge117" class="edge">
<title>src_Calc_Operations_v&#45;&gt;src_Prop_Div_sqrt_error_v</title>
<path fill="none" stroke="black" d="M1596.24,-369.1C1598.58,-340.03 1600,-285.88 1584,-243.5 1570.06,-206.57 1562.96,-194.72 1530,-173 1378.58,-73.23 1160.09,-47.26 1048.49,-40.55"/>
<polygon fill="black" stroke="black" points="1048.75,-37.05 1038.57,-39.99 1048.35,-44.04 1048.75,-37.05"/>
</g>
<!-- src_Calc_Operations_v&#45;&gt;src_Prop_Mult_error_v -->
<g id="edge114" class="edge">
<title>src_Calc_Operations_v&#45;&gt;src_Prop_Mult_error_v</title>
<path fill="none" stroke="black" d="M1567.41,-369.15C1561.26,-364.15 1554.81,-358.74 1549,-353.5 1497.9,-307.4 1499.98,-277.25 1440,-243.5 1284.67,-156.09 1070.86,-128.67 969.21,-120.3"/>
<polygon fill="black" stroke="black" points="969.72,-116.83 959.48,-119.53 969.17,-123.81 969.72,-116.83"/>
</g>
<!-- src_Calc_Operations_v&#45;&gt;src_Prop_Plus_error_v -->
<g id="edge111" class="edge">
<title>src_Calc_Operations_v&#45;&gt;src_Prop_Plus_error_v</title>
<path fill="none" stroke="black" d="M1557.4,-369.02C1551.08,-366.1 1544.47,-363.44 1538,-361.5 1508.86,-352.74 1496.57,-368.34 1470,-353.5 1415.58,-323.11 1437.65,-273.47 1383,-243.5 1312.65,-204.92 1076.35,-197.11 966.73,-195.58"/>
<polygon fill="black" stroke="black" points="966.83,-192.09 956.78,-195.46 966.74,-199.09 966.83,-192.09"/>
</g>
<!-- src_Calc_Operations_v&#45;&gt;src_Prop_Round_odd_v -->
<g id="edge122" class="edge">
<title>src_Calc_Operations_v&#45;&gt;src_Prop_Round_odd_v</title>
<path fill="none" stroke="black" d="M1558.77,-369.06C1552.07,-365.98 1544.97,-363.25 1538,-361.5 1504.05,-352.96 1254.06,-369.66 1223,-353.5 1202.82,-343 1187.76,-322.11 1177.9,-304.34"/>
<polygon fill="black" stroke="black" points="1181.12,-302.94 1173.4,-295.69 1174.91,-306.17 1181.12,-302.94"/>
</g>
<!-- src_Calc_Operations_v&#45;&gt;src_Prop_Sterbenz_v -->
<g id="edge106" class="edge">
<title>src_Calc_Operations_v&#45;&gt;src_Prop_Sterbenz_v</title>
<path fill="none" stroke="black" d="M1591.35,-369.13C1584.55,-325.36 1562.27,-223.1 1498,-173 1456,-140.26 1304.07,-125.47 1222.93,-119.78"/>
<polygon fill="black" stroke="black" points="1223.22,-116.29 1213.01,-119.11 1222.75,-123.28 1223.22,-116.29"/>
</g>
<!-- src_Calc_Operations_v&#45;&gt;src_Pff_Pff2Flocq_v -->
<g id="edge128" class="edge">
<title>src_Calc_Operations_v&#45;&gt;src_Pff_Pff2Flocq_v</title>
<path fill="none" stroke="black" d="M1559.09,-369.12C1552.3,-365.99 1545.09,-363.23 1538,-361.5 1500.97,-352.46 890.03,-355.99 852,-353.5 623.05,-338.5 352.02,-299.35 239.3,-282.11"/>
<polygon fill="black" stroke="black" points="239.84,-278.65 229.43,-280.59 238.78,-285.57 239.84,-278.65"/>
</g>
<!-- src_Calc_Round_v&#45;&gt;src_Calc_Plus_v -->
<g id="edge103" class="edge">
<title>src_Calc_Round_v&#45;&gt;src_Calc_Plus_v</title>
<path fill="none" stroke="black" d="M1381.63,-369.01C1372.64,-351.03 1359.51,-324.77 1349.31,-304.37"/>
<polygon fill="black" stroke="black" points="1352.56,-303.04 1344.96,-295.66 1346.3,-306.17 1352.56,-303.04"/>
</g>
<!-- src_Prop_Mult_error_v&#45;&gt;src_Prop_Div_sqrt_error_v -->
<g id="edge119" class="edge">
<title>src_Prop_Mult_error_v&#45;&gt;src_Prop_Div_sqrt_error_v</title>
<path fill="none" stroke="black" d="M928.69,-94.25C935.79,-86.02 944.11,-76.38 951.82,-67.44"/>
<polygon fill="black" stroke="black" points="954.39,-69.81 958.28,-59.95 949.09,-65.24 954.39,-69.81"/>
</g>
<!-- src_Prop_Plus_error_v&#45;&gt;src_Prop_Mult_error_v -->
<g id="edge116" class="edge">
<title>src_Prop_Plus_error_v&#45;&gt;src_Prop_Mult_error_v</title>
<path fill="none" stroke="black" d="M910.27,-172.75C910.36,-165.37 910.48,-156.87 910.58,-148.75"/>
<polygon fill="black" stroke="black" points="914.08,-148.87 910.71,-138.82 907.08,-148.77 914.08,-148.87"/>
</g>
<!-- src_Prop_Relative_v&#45;&gt;src_Prop_Div_sqrt_error_v -->
<g id="edge120" class="edge">
<title>src_Prop_Relative_v&#45;&gt;src_Prop_Div_sqrt_error_v</title>
<path fill="none" stroke="black" d="M934.31,-251.04C945.64,-241.6 957.36,-229.42 964,-215.5 986.37,-168.64 984.95,-106.79 981.35,-69.91"/>
<polygon fill="black" stroke="black" points="984.87,-69.93 980.29,-60.37 977.91,-70.69 984.87,-69.93"/>
</g>
<!-- src_Prop_Relative_v&#45;&gt;src_Prop_Plus_error_v -->
<g id="edge113" class="edge">
<title>src_Prop_Relative_v&#45;&gt;src_Prop_Plus_error_v</title>
<path fill="none" stroke="black" d="M905.61,-251.25C906.19,-243.87 906.85,-235.37 907.49,-227.25"/>
<polygon fill="black" stroke="black" points="910.98,-227.56 908.27,-217.32 904,-227.01 910.98,-227.56"/>
</g>
<!-- src_Prop_Sterbenz_v&#45;&gt;src_Prop_Div_sqrt_error_v -->
<g id="edge121" class="edge">
<title>src_Prop_Sterbenz_v&#45;&gt;src_Prop_Div_sqrt_error_v</title>
<path fill="none" stroke="black" d="M1130.33,-98.71C1104.21,-88.41 1069.74,-74.82 1040.1,-63.13"/>
<polygon fill="black" stroke="black" points="1041.42,-59.89 1030.84,-59.48 1038.85,-66.4 1041.42,-59.89"/>
</g>
<!-- src_IEEE754_Binary_v -->
<g id="node28" class="node">
<title>src_IEEE754_Binary_v</title>
<polygon fill="none" stroke="black" points="1587,-1260 1499,-1260 1499,-1217.5 1587,-1217.5 1587,-1260"/>
<text text-anchor="middle" x="1543" y="-1242.7" font-family="Times,serif" font-size="14.00">Binary</text>
<text text-anchor="middle" x="1543" y="-1225.45" font-family="Times,serif" font-size="14.00">(286 defs)</text>
</g>
<!-- src_IEEE754_BinarySingleNaN_v -->
<g id="node29" class="node">
<title>src_IEEE754_BinarySingleNaN_v</title>
<polygon fill="none" stroke="black" points="1481.25,-1260 1340.75,-1260 1340.75,-1217.5 1481.25,-1217.5 1481.25,-1260"/>
<text text-anchor="middle" x="1411" y="-1242.7" font-family="Times,serif" font-size="14.00">BinarySingleNaN</text>
<text text-anchor="middle" x="1411" y="-1225.45" font-family="Times,serif" font-size="14.00">(91 defs)</text>
</g>
<!-- src_IEEE754_Bits_v -->
<g id="node30" class="node">
<title>src_IEEE754_Bits_v</title>
<polygon fill="none" stroke="black" points="1322.5,-1260 1243.5,-1260 1243.5,-1217.5 1322.5,-1217.5 1322.5,-1260"/>
<text text-anchor="middle" x="1283" y="-1242.7" font-family="Times,serif" font-size="14.00">Bits</text>
<text text-anchor="middle" x="1283" y="-1225.45" font-family="Times,serif" font-size="14.00">(36 defs)</text>
</g>
<!-- src_IEEE754_PrimFloat_v -->
<g id="node31" class="node">
<title>src_IEEE754_PrimFloat_v</title>
<polygon fill="none" stroke="black" points="1225.62,-1260 1138.38,-1260 1138.38,-1217.5 1225.62,-1217.5 1225.62,-1260"/>
<text text-anchor="middle" x="1182" y="-1242.7" font-family="Times,serif" font-size="14.00">PrimFloat</text>
<text text-anchor="middle" x="1182" y="-1225.45" font-family="Times,serif" font-size="14.00">(2 defs)</text>
</g>
<!-- src_Pff_Nat2Z_8_12_v -->
<g id="node32" class="node">
<title>src_Pff_Nat2Z_8_12_v</title>
<polygon fill="none" stroke="black" points="227.75,-412 126.25,-412 126.25,-369.5 227.75,-369.5 227.75,-412"/>
<text text-anchor="middle" x="177" y="-394.7" font-family="Times,serif" font-size="14.00">Nat2Z_8_12</text>
<text text-anchor="middle" x="177" y="-377.45" font-family="Times,serif" font-size="14.00">(0 defs)</text>
</g>
<!-- src_Pff_Pff_v -->
<g id="node33" class="node">
<title>src_Pff_Pff_v</title>
<polygon fill="none" stroke="black" points="108,-412 20,-412 20,-369.5 108,-369.5 108,-412"/>
<text text-anchor="middle" x="64" y="-394.7" font-family="Times,serif" font-size="14.00">Pff</text>
<text text-anchor="middle" x="64" y="-377.45" font-family="Times,serif" font-size="14.00">(647 defs)</text>
</g>
<!-- src_Pff_Pff_v&#45;&gt;src_Pff_Pff2Flocq_v -->
<g id="edge130" class="edge">
<title>src_Pff_Pff_v&#45;&gt;src_Pff_Pff2Flocq_v</title>
<path fill="none" stroke="black" d="M102.05,-369.05C107.05,-366.46 112.13,-363.88 117,-361.5 124.87,-357.66 128.36,-359.21 135,-353.5 150.54,-340.14 163.04,-320.88 171.78,-304.63"/>
<polygon fill="black" stroke="black" points="174.84,-306.32 176.28,-295.83 168.61,-303.14 174.84,-306.32"/>
</g>
<!-- src_Pff_Pff_v&#45;&gt;src_Pff_Pff2FlocqAux_v -->
<g id="edge126" class="edge">
<title>src_Pff_Pff_v&#45;&gt;src_Pff_Pff2FlocqAux_v</title>
<path fill="none" stroke="black" d="M65.25,-369.01C66.31,-351.44 67.85,-325.97 69.07,-305.78"/>
<polygon fill="black" stroke="black" points="72.56,-306.01 69.67,-295.82 65.57,-305.59 72.56,-306.01"/>
</g>
</g>
</svg>
